<svg width="43" height="40" viewBox="0 0 43 40" fill="none" xmlns="http://www.w3.org/2000/svg">
<path fill-rule="evenodd" clip-rule="evenodd" d="M21.5162 0.0258789C10.1313 0.0258789 0.927734 9.18316 0.927734 20.512C0.927734 29.5677 6.82478 37.2332 15.0055 39.9462C16.0283 40.1502 16.403 39.5054 16.403 38.9631C16.403 38.4881 16.3693 36.8602 16.3693 35.164C10.6421 36.3853 9.44943 32.722 9.44943 32.722C8.52903 30.3477 7.16529 29.7375 7.16529 29.7375C5.29078 28.4825 7.30184 28.4825 7.30184 28.4825C9.38116 28.6182 10.4722 30.5854 10.4722 30.5854C12.3126 33.7055 15.2782 32.8239 16.4713 32.2812C16.6415 30.9583 17.1873 30.0426 17.7667 29.534C13.1989 29.059 8.39291 27.2954 8.39291 19.4264C8.39291 17.1879 9.21048 15.3564 10.506 13.932C10.3016 13.4234 9.58556 11.3201 10.7108 8.50511C10.7108 8.50511 12.4492 7.96233 16.3689 10.608C18.047 10.1595 19.7777 9.9314 21.5162 9.92948C23.2546 9.92948 25.0267 10.1672 26.6631 10.608C30.5832 7.96233 32.3216 8.50511 32.3216 8.50511C33.4468 11.3201 32.7304 13.4234 32.526 13.932C33.8556 15.3564 34.6395 17.1879 34.6395 19.4264C34.6395 27.2954 29.8335 29.0249 25.2315 29.534C25.9816 30.1783 26.629 31.3991 26.629 33.3326C26.629 36.0798 26.5952 38.2846 26.5952 38.9626C26.5952 39.5054 26.9703 40.1502 27.9927 39.9466C36.1735 37.2327 42.0705 29.5677 42.0705 20.512C42.1042 9.18316 32.8669 0.0258789 21.5162 0.0258789Z" fill="black"/>
</svg>
